User Type,Username,Date,Text
,sidnik,2012-04-18T19:55Z,"What abt the quality guys?comment plss
its saying 1920 x 800..is that so?"
[V],Zen_Bud,2012-04-18T20:20Z,"I watching the rip right know and it is super quality, as always from anoXmous:)

Here is a full MediaInfo:

General
Complete name                         :Sherlock.Holmes.A.Game.Of.Shadows.2011.1080p.Bluray.x264.anoXmous.mp4
Format                                   : MPEG-4
Format profile                           : Base Media
Codec ID                                 : isom
File size                                : 1.22 GiB
Duration                                 : 2h 8mn
Overall bit rate mode                    : Variable
Overall bit rate                         : 1 353 Kbps
Encoded date                             : UTC 2012-04-18 07:33:29
Tagged date                              : UTC 2012-04-18 07:33:29

Video
ID                                       : 1
Format                                   : AVC
Format/Info                              : Advanced Video Codec
Format profile                           : High@L4.1
Format settings, CABAC                   : Yes
Format settings, ReFrames                : 4 frames
Codec ID                                 : avc1
Codec ID/Info                            : Advanced Video Coding
Duration                                 : 2h 8mn
Bit rate                                 : 1 280 Kbps
Maximum bit rate                         : 8 748 Kbps
Width                                    : 1 920 pixels
Height                                   : 800 pixels
Display aspect ratio                     : 2.40:1
Frame rate mode                          : Constant
Frame rate                               : 23.976 fps
Color space                              : YUV
Chroma subsampling                       : 4:2:0
Bit depth                                : 8 bits
Scan type                                : Progressive
Bits/(Pixel*Frame)                       : 0.035
Stream size                              : 1.15 GiB (95%)
Writing library                          : x264 core 122 r2184 5c85e0a
Encoding settings                        : cabac=1 / ref=4 / deblock=1:0:0 / analyse=0x3:0x113 / me=hex / subme=7 / psy=1 / psy_rd=1.00:0.00 / mixed_ref=1 / me_range=16 / chroma_me=1 / trellis=1 / 8x8dct=1 / cqm=0 / deadzone=21,11 / fast_pskip=1 / chroma_qp_offset=-2 / threads=3 / sliced_threads=0 / nr=0 / decimate=1 / interlaced=0 / bluray_compat=0 / constrained_intra=0 / bframes=4 / b_pyramid=2 / b_adapt=1 / b_bias=0 / direct=1 / weightb=1 / open_gop=0 / weightp=2 / keyint=240 / keyint_min=23 / scenecut=40 / intra_refresh=0 / rc_lookahead=40 / rc=2pass / mbtree=1 / bitrate=1280 / ratetol=1.0 / qcomp=0.60 / qpmin=0 / qpmax=69 / qpstep=4 / cplxblur=20.0 / qblur=0.5 / ip_ratio=1.40 / aq=1:1.00
Encoded date                             : UTC 2012-04-18 00:14:07
Tagged date                              : UTC 2012-04-18 07:35:20

Audio
ID                                       : 2
Format                                   : AAC
Format/Info                              : Advanced Audio Codec
Format profile                           : HE-AAC / LC
Codec ID                                 : 40
Duration                                 : 2h 8mn
Bit rate mode                            : Variable
Bit rate                                 : 72.0 Kbps
Maximum bit rate                         : 98.2 Kbps
Channel(s)                               : 2 channels
Channel positions                        : Front: L R
Sampling rate                            : 48.0 KHz / 24.0 KHz
Compression mode                         : Lossy
Delay relative to video                  : -3s 337ms
Stream size                              : 65.4 MiB (5%)
Encoded date                             : UTC 2012-04-18 07:35:08
Tagged date                              : UTC 2012-04-18 07:35:20

"
,sidnik,2012-04-19T03:51Z,"Thats HELPFUL! Thanks uploader !
Downloading started..."
,bronsongotn,2012-06-01T16:06Z,"Really nice quality!Thank you!

A/7,5
V/7,5
"
,Alfa2k,2012-06-24T23:00Z,Very nice!!! A=10 | V=10
